<svg width="1158" height="293" viewBox="0 0 1158 293" fill="none" xmlns="http://www.w3.org/2000/svg">
<g filter="url(#filter0_d_2_3)">
<path d="M151.205 235V150.2L223.02 49.5H190.16L137.16 124.495L84.16 49.5H50.24L122.055 150.995V235H151.205ZM368.72 191.54C356.265 178.29 350.17 161.86 350.17 142.25C350.17 122.64 356.265 106.21 368.72 93.225C381.175 79.975 396.545 73.35 414.83 73.35C433.115 73.35 448.485 79.975 460.94 93.225C473.395 106.21 479.755 122.64 479.755 142.25C479.755 161.86 473.395 178.29 460.94 191.54C448.485 204.525 433.115 211.15 414.83 211.15C396.545 211.15 381.175 204.525 368.72 191.54ZM482.67 210.885C500.69 192.335 509.7 169.545 509.7 142.25C509.7 114.955 500.69 92.165 482.67 73.88C464.65 55.33 442.125 46.055 414.83 46.055C387.535 46.055 365.01 55.33 346.99 73.88C329.235 92.165 320.225 114.955 320.225 142.25C320.225 169.545 329.235 192.335 346.99 210.885C365.01 229.17 387.535 238.445 414.83 238.445C442.125 238.445 464.65 229.17 482.67 210.885ZM729.085 238.445C760.09 238.445 787.915 225.46 803.02 207.44V127.94H773.87V195.515C763.005 205.85 747.9 211.15 729.085 211.15C710.27 211.15 694.635 204.79 681.65 192.335C668.93 179.615 662.57 162.92 662.57 142.515C662.57 122.11 669.195 105.68 682.18 92.695C695.165 79.71 711.86 73.35 732 73.35C751.875 73.35 770.425 79.18 787.385 90.84V61.955C771.75 51.355 752.67 46.055 730.145 46.055C702.32 46.055 679 55.065 660.45 73.35C641.9 91.37 632.625 114.425 632.625 142.25C632.625 170.075 641.9 193.13 660.185 211.415C678.735 229.435 701.79 238.445 729.085 238.445ZM948.35 235L968.225 188.89H1056.2L1076.34 235H1107.61L1026.52 48.44H998.435L917.345 235H948.35ZM1012.21 85.275L1046.13 163.185H978.295L1012.21 85.275Z" fill="white"/>
</g>
<defs>
<filter id="filter0_d_2_3" x="0.23999" y="0.0549927" width="1157.37" height="292.39" filterUnits="userSpaceOnUse" color-interpolation-filters="sRGB">
<feFlood flood-opacity="0" result="BackgroundImageFix"/>
<feColorMatrix in="SourceAlpha" type="matrix" values="0 0 0 0 0 0 0 0 0 0 0 0 0 0 0 0 0 0 127 0" result="hardAlpha"/>
<feOffset dy="4"/>
<feGaussianBlur stdDeviation="25"/>
<feColorMatrix type="matrix" values="0 0 0 0 0.513726 0 0 0 0 0.45098 0 0 0 0 0.631373 0 0 0 0.6 0"/>
<feBlend mode="normal" in2="BackgroundImageFix" result="effect1_dropShadow_2_3"/>
<feBlend mode="normal" in="SourceGraphic" in2="effect1_dropShadow_2_3" result="shape"/>
</filter>
</defs>
</svg>
